<svg xmlns="http://www.w3.org/2000/svg" viewBox="0 0 342.85155851775386 342.85155851775386" height="342.85155851775386" width="342.85155851775386"><g><svg/></g><g><svg viewBox="0 0 342.85155851775386 342.85155851775386" height="342.85155851775386" width="342.85155851775386"><g><path d="M0 171.426c0-94.676 76.75-171.426 171.426-171.426 94.676 0 171.426 76.75 171.426 171.426 0 94.676-76.75 171.426-171.426 171.426-94.676 0-171.426-76.75-171.426-171.426zM171.426 339.79c92.985 0 168.364-75.379 168.364-168.364 0-92.985-75.379-168.364-168.364-168.365-92.985 0-168.364 75.379-168.364 168.365 0 92.985 75.379 168.364 168.364 168.364z" data-fill-palette-color="tertiary" fill="#97978d" stroke="transparent"/><ellipse rx="164.56874808852186" ry="164.56874808852186" cx="171.42577925887693" cy="171.42577925887693" fill="#97978d" stroke="transparent" stroke-width="0" fill-opacity="1" data-fill-palette-color="tertiary"/></g><g transform="matrix(1,0,0,1,64.84655864529837,103.52777188390327)"><svg viewBox="0 0 213.1584412271571 135.79601474994732" height="135.79601474994732" width="213.1584412271571"><g><svg viewBox="0 0 213.1584412271571 135.79601474994732" height="135.79601474994732" width="213.1584412271571"><g><svg viewBox="0 0 213.1584412271571 135.79601474994732" height="135.79601474994732" width="213.1584412271571"><g transform="matrix(1,0,0,1,0,101.84765608127519)"><svg viewBox="0 0 213.1584412271571 33.94835866867212" height="33.94835866867212" width="213.1584412271571"><g id="textblocktransform"><svg viewBox="0 0 213.1584412271571 33.94835866867212" height="33.94835866867212" width="213.1584412271571" id="textblock"><g><svg viewBox="0 0 213.1584412271571 33.94835866867212" height="33.94835866867212" width="213.1584412271571"><g transform="matrix(1,0,0,1,0,0)"><svg width="213.1584412271571" viewBox="1.7999999523162842 -35.54999923706055 225.32286381721497 36.14999771118164" height="33.94835866867212" data-palette-color="#ffffff"><g transform="matrix(1,0,0,1,0,0)"><g><svg width="13.96683667112156" viewBox="3.1600000858306885 -36.36000061035156 91.69999694824219 36.36000061035156" height="5.538060310253041" data-palette-color="#ffffff" id="scriptelement" x="210.26341115439317" y="-12.645069660131403"><path d="M10.85 0L3.16 0 3.16-36.36 10.85-36.36 10.85-21.36 26.46-21.36 26.46-36.36 34.13-36.36 34.13 0 26.46 0 26.46-15.02 10.85-15.02 10.85 0ZM40.73-17.93L57.31-17.93 57.31-11.93 40.73-11.93 40.73-17.93ZM71.59 0L63.9 0 63.9-36.36 71.59-36.36 71.59-21.36 87.19-21.36 87.19-36.36 94.86-36.36 94.86 0 87.19 0 87.19-15.02 71.59-15.02 71.59 0Z" opacity="1" transform="matrix(1,0,0,1,0,0)" fill="#ffffff" class="undefined-123" data-fill-palette-color="quaternary" id="p-123"/></svg></g></g><path d="M207.371-9.876C207.371-15.33 211.792-19.752 217.247-19.752 222.701-19.752 227.123-15.33 227.123-9.876 227.123-4.422 222.701 0 217.247 0 211.792 0 207.371-4.422 207.371-9.876ZM217.247-0.4C222.48-0.4 226.723-4.643 226.723-9.876 226.723-15.11 222.48-19.352 217.247-19.352 212.013-19.352 207.771-15.109 207.771-9.876 207.771-4.643 212.013-0.4 217.247-0.4Z" fill="#ffffff" id="scriptcircle" data-fill-palette-color="quaternary"/><path d="M17.9-0.3Q14.8 0.5 11.9 0.5L11.9 0.5Q9.2 0.5 7.4-0.1L7.4-0.1Q4.45-1.1 3.13-3.18 1.8-5.25 1.8-9L1.8-9 1.8-15.4Q1.8-20.35 4.4-22.93 7-25.5 11.1-25.5L11.1-25.5Q14.35-25.5 17.8-23.9L17.8-23.9 16.55-20.1Q14.1-21.1 11.9-21.1L11.9-21.1Q9.3-21.1 7.83-19.68 6.35-18.25 6.35-15.7L6.35-15.7 6.35-8.45Q6.35-6.05 8-5 9.65-3.95 12.2-3.95L12.2-3.95Q14.45-3.95 16.7-4.6L16.7-4.6 17.9-0.3ZM41.7-9.2Q41.7-5 39.4-2.25 37.1 0.5 32.45 0.5L32.45 0.5Q27.8 0.5 25.42-2.27 23.05-5.05 23.05-9.2L23.05-9.2 23.05-15.8Q23.05-20.55 25.47-23.08 27.9-25.6 32.45-25.6L32.45-25.6Q36.8-25.6 39.25-22.98 41.7-20.35 41.7-15.8L41.7-15.8 41.7-9.2ZM37.2-15.8Q37.2-21.1 32.45-21.1L32.45-21.1Q30.3-21.1 28.95-19.9 27.6-18.7 27.6-15.8L27.6-15.8 27.6-8.7Q27.6-6.35 28.95-5.13 30.3-3.9 32.45-3.9L32.45-3.9Q34.6-3.9 35.9-5.15 37.2-6.4 37.2-8.7L37.2-8.7 37.2-15.8ZM47.45 0L47.45-27.45Q47.45-31.8 49.67-33.68 51.9-35.55 55.2-35.55L55.2-35.55Q56.45-35.55 57.4-35.35L57.4-35.35 56.65-31.25Q56.05-31.4 55.45-31.4L55.45-31.4Q54-31.4 53.02-30.48 52.05-29.55 52.05-27.45L52.05-27.45 52.05-25.05 56.9-25.05 55.7-20.75 52.05-20.75 52.05 0 47.45 0ZM63.14 0L63.14-27.45Q63.14-31.8 65.37-33.68 67.59-35.55 70.89-35.55L70.89-35.55Q72.14-35.55 73.09-35.35L73.09-35.35 72.34-31.25Q71.74-31.4 71.14-31.4L71.14-31.4Q69.69-31.4 68.72-30.48 67.74-29.55 67.74-27.45L67.74-27.45 67.74-25.05 72.59-25.05 71.39-20.75 67.74-20.75 67.74 0 63.14 0ZM91.74-1.75Q89.94-0.6 87.64 0 85.34 0.6 83.04 0.6L83.04 0.6Q79.34 0.6 77.17-1.23 74.99-3.05 74.99-6.7L74.99-6.7 74.99-16.95Q74.99-21 77.52-23.25 80.04-25.5 84.19-25.5L84.19-25.5Q88.34-25.5 90.67-23.28 92.99-21.05 92.99-17.1L92.99-17.1 92.99-9.9 79.59-9.15 79.59-7.2Q79.59-5.45 80.62-4.53 81.64-3.6 83.49-3.6L83.49-3.6Q86.24-3.6 90.04-5.6L90.04-5.6 91.74-1.75ZM88.39-17.15Q88.39-19.2 87.09-20.18 85.79-21.15 84.14-21.15L84.14-21.15Q81.99-21.15 80.79-19.98 79.59-18.8 79.59-16.9L79.59-16.9 79.59-13.4 88.39-13.9 88.39-17.15ZM113.44-1.75Q111.64-0.6 109.34 0 107.04 0.6 104.74 0.6L104.74 0.6Q101.04 0.6 98.86-1.23 96.69-3.05 96.69-6.7L96.69-6.7 96.69-16.95Q96.69-21 99.21-23.25 101.74-25.5 105.89-25.5L105.89-25.5Q110.04-25.5 112.36-23.28 114.69-21.05 114.69-17.1L114.69-17.1 114.69-9.9 101.29-9.15 101.29-7.2Q101.29-5.45 102.31-4.53 103.34-3.6 105.19-3.6L105.19-3.6Q107.94-3.6 111.74-5.6L111.74-5.6 113.44-1.75ZM110.09-17.15Q110.09-19.2 108.79-20.18 107.49-21.15 105.84-21.15L105.84-21.15Q103.69-21.15 102.49-19.98 101.29-18.8 101.29-16.9L101.29-16.9 101.29-13.4 110.09-13.9 110.09-17.15ZM118.89-16.25L118.89-20.65 134.89-20.65 134.89-16.25 118.89-16.25ZM141.03-17.3Q141.03-22.55 145.28-24.5L145.28-24.5Q147.43-25.5 150.13-25.5L150.13-25.5Q151.53-25.5 152.81-25.23 154.08-24.95 154.98-24.5L154.98-24.5 154.98-35 159.48-35 159.48 0 156.73 0.25Q153.48 0.6 151.63 0.6L151.63 0.6Q149.78 0.6 148.16 0.25 146.53-0.1 144.93-0.9L144.93-0.9Q143.13-1.8 142.08-3.55 141.03-5.3 141.03-7.85L141.03-7.85 141.03-17.3ZM154.98-19.85Q152.93-20.95 150.53-20.95L150.53-20.95Q148.33-20.95 146.93-19.75 145.53-18.55 145.53-15.95L145.53-15.95 145.53-7.6Q145.53-5.65 147.21-4.63 148.88-3.6 151.58-3.6L151.58-3.6Q153.08-3.6 154.98-4L154.98-4 154.98-19.85ZM180.48-1.75Q178.68-0.6 176.38 0 174.08 0.6 171.78 0.6L171.78 0.6Q168.08 0.6 165.91-1.23 163.73-3.05 163.73-6.7L163.73-6.7 163.73-16.95Q163.73-21 166.26-23.25 168.78-25.5 172.93-25.5L172.93-25.5Q177.08-25.5 179.41-23.28 181.73-21.05 181.73-17.1L181.73-17.1 181.73-9.9 168.33-9.15 168.33-7.2Q168.33-5.45 169.36-4.53 170.38-3.6 172.23-3.6L172.23-3.6Q174.98-3.6 178.78-5.6L178.78-5.6 180.48-1.75ZM177.13-17.15Q177.13-19.2 175.83-20.18 174.53-21.15 172.88-21.15L172.88-21.15Q170.73-21.15 169.53-19.98 168.33-18.8 168.33-16.9L168.33-16.9 168.33-13.4 177.13-13.9 177.13-17.15ZM190.68 0L182.78-25.05 187.73-25.05 193.08-7.35 198.38-25.05 203.28-25.05 195.43 0 190.68 0Z" opacity="1" transform="matrix(1,0,0,1,0,0)" fill="#ffffff" class="wordmark-text-0" data-fill-palette-color="quaternary" id="text-0"/></svg></g></svg></g></svg></g></svg></g><g transform="matrix(1,0,0,1,59.66353033012071,0)"><svg viewBox="0 0 93.8313805669157 93.83326336020976" height="93.83326336020976" width="93.8313805669157"><g><svg xmlns="http://www.w3.org/2000/svg" xmlns:xlink="http://www.w3.org/1999/xlink" version="1.1" x="0" y="0" viewBox="0 0 99.99799346923828 100" enable-background="new 0 0 99.998 100" xml:space="preserve" width="93.8313805669157" height="93.83326336020976" class="icon-icon-0" data-fill-palette-color="quaternary" id="icon-0"><path fill="#ffffff" d="M83.999 71.808l-2.939-0.001 0.004-5.879 2.938 0.001c2.431 0 4.41-1.979 4.41-4.411V49.759c0-2.432-1.979-4.411-4.412-4.411H81.06v-5.879h2.939c5.675 0 10.291 4.617 10.291 10.29v11.759C94.29 67.191 89.674 71.808 83.999 71.808L83.999 71.808z" data-fill-palette-color="quaternary"/><path fill="#ffffff" d="M0 92.65C0 96.713 3.262 100 7.294 100h85.409c4.032 0 7.295-3.287 7.295-7.35H0z" data-fill-palette-color="quaternary"/><path fill="#ffffff" d="M42.542 10.74c3.299 9.899-5.228 12.54-5.228 12.54l-0.039 0.061c0.086-0.144 2.065-3.614-0.311-10.742C33.665 2.7 42.192 0.06 42.192 0.06L42.231 0C42.144 0.143 40.167 3.615 42.542 10.74z" data-fill-palette-color="quaternary"/><path fill="#ffffff" d="M52.787 10.74c3.298 9.899-5.228 12.54-5.228 12.54l-0.039 0.061c0.085-0.144 2.064-3.614-0.311-10.742C43.909 2.7 52.438 0.06 52.438 0.06L52.478 0C52.39 0.143 50.412 3.615 52.787 10.74z" data-fill-palette-color="quaternary"/><path fill="#ffffff" d="M63.032 10.74c3.299 9.899-5.227 12.54-5.227 12.54l-0.039 0.061c0.085-0.144 2.064-3.614-0.311-10.742C54.156 2.7 62.684 0.06 62.684 0.06L62.723 0C62.636 0.143 60.658 3.615 63.032 10.74z" data-fill-palette-color="quaternary"/><path fill="#ffffff" d="M22.069 29.18v47.038c0 6.5 5.26 11.759 11.759 11.759h32.34c6.499 0 11.759-5.259 11.759-11.759V29.18H22.069zM69.107 74.748c0 0.811-0.659 1.47-1.47 1.47-0.813 0-1.47-0.659-1.47-1.47V36.529c0-0.811 0.656-1.47 1.47-1.47 0.811 0 1.47 0.659 1.47 1.47V74.748z" data-fill-palette-color="quaternary"/></svg></g></svg></g><g/></svg></g></svg></g></svg></g></svg></g><defs/></svg>